<svg id="visual" viewBox="0 0 960 540" width="960" height="540" xmlns="http://www.w3.org/2000/svg" xmlns:xlink="http://www.w3.org/1999/xlink" version="1.1"><rect width="960" height="540" fill="#212529"></rect><g><g transform="translate(468 177)"><path d="M0 -106.9L83.6 -66.7L104.2 23.8L46.4 96.3L-46.4 96.3L-104.2 23.8L-83.6 -66.7Z" fill="#dfac13"></path></g><g transform="translate(761 238)"><path d="M0 -101L79 -63L98.5 22.5L43.8 91L-43.8 91L-98.5 22.5L-79 -63Z" fill="#dfac13"></path></g><g transform="translate(225 124)"><path d="M0 -53L41.4 -33L51.7 11.8L23 47.8L-23 47.8L-51.7 11.8L-41.4 -33Z" fill="#dfac13"></path></g><g transform="translate(210 522)"><path d="M0 -15L11.7 -9.4L14.6 3.3L6.5 13.5L-6.5 13.5L-14.6 3.3L-11.7 -9.4Z" fill="#dfac13"></path></g><g transform="translate(8 198)"><path d="M0 -49L38.3 -30.6L47.8 10.9L21.3 44.1L-21.3 44.1L-47.8 10.9L-38.3 -30.6Z" fill="#dfac13"></path></g><g transform="translate(431 525)"><path d="M0 -78L61 -48.6L76 17.4L33.8 70.3L-33.8 70.3L-76 17.4L-61 -48.6Z" fill="#dfac13"></path></g><g transform="translate(955 479)"><path d="M0 -90L70.4 -56.1L87.7 20L39 81.1L-39 81.1L-87.7 20L-70.4 -56.1Z" fill="#dfac13"></path></g><g transform="translate(704 21)"><path d="M0 -77L60.2 -48L75.1 17.1L33.4 69.4L-33.4 69.4L-75.1 17.1L-60.2 -48Z" fill="#dfac13"></path></g><g transform="translate(916 84)"><path d="M0 -21L16.4 -13.1L20.5 4.7L9.1 18.9L-9.1 18.9L-20.5 4.7L-16.4 -13.1Z" fill="#dfac13"></path></g><g transform="translate(734 527)"><path d="M0 -13L10.2 -8.1L12.7 2.9L5.6 11.7L-5.6 11.7L-12.7 2.9L-10.2 -8.1Z" fill="#dfac13"></path></g></g></svg>